<?xml version="1.0"?>
<svg xmlns="http://www.w3.org/2000/svg" xmlns:xlink="http://www.w3.org/1999/xlink" xmlns:svgjs="http://svgjs.com/svgjs" version="1.1" width="512" height="512" x="0" y="0" viewBox="0 0 74 74" style="enable-background:new 0 0 512 512" xml:space="preserve"><g><path xmlns="http://www.w3.org/2000/svg" d="m68 55.354h-62a4 4 0 0 1 -4-4v-44a4 4 0 0 1 4-4h62a4 4 0 0 1 4 4v44a4 4 0 0 1 -4 4zm-62-50a2 2 0 0 0 -2 2v44a2 2 0 0 0 2 2h62a2 2 0 0 0 2-2v-44a2 2 0 0 0 -2-2z" fill="#ffffff" data-original="#000000" style=""/><path xmlns="http://www.w3.org/2000/svg" d="m71 42.1h-68a1 1 0 0 1 0-2h68a1 1 0 0 1 0 2z" fill="#ffffff" data-original="#000000" style=""/><path xmlns="http://www.w3.org/2000/svg" d="m37 51.354a3.625 3.625 0 1 1 3.625-3.625 3.629 3.629 0 0 1 -3.625 3.625zm0-5.25a1.625 1.625 0 1 0 1.625 1.625 1.627 1.627 0 0 0 -1.625-1.629z" fill="#ffffff" data-original="#000000" style=""/><path xmlns="http://www.w3.org/2000/svg" d="m52.01 65.1h-30.02a1 1 0 0 1 -.459-1.888 9.179 9.179 0 0 0 4.809-8.822 1 1 0 0 1 .964-1.036.979.979 0 0 1 1.035.964 11.268 11.268 0 0 1 -3.311 8.782h23.944a11.268 11.268 0 0 1 -3.311-8.786.985.985 0 0 1 1.035-.964 1 1 0 0 1 .964 1.036 9.179 9.179 0 0 0 4.809 8.826 1 1 0 0 1 -.459 1.888z" fill="#ffffff" data-original="#000000" style=""/><path xmlns="http://www.w3.org/2000/svg" d="m55.583 70.646h-37.166a1 1 0 0 1 -1-1v-2.167a4.379 4.379 0 0 1 4.375-4.379h30.416a4.379 4.379 0 0 1 4.375 4.375v2.167a1 1 0 0 1 -1 1.004zm-36.166-2h35.166v-1.167a2.377 2.377 0 0 0 -2.375-2.379h-30.416a2.377 2.377 0 0 0 -2.375 2.375z" fill="#ffffff" data-original="#000000" style=""/><path xmlns="http://www.w3.org/2000/svg" d="m51.1 35.5a1.008 1.008 0 0 1 -.412-.088 15.553 15.553 0 0 0 -13.287 0 1 1 0 0 1 -1.401-.912v-21.933a1 1 0 0 1 .594-.914 17.671 17.671 0 0 1 14.912 0 1 1 0 0 1 .594.914v21.933a1 1 0 0 1 -1 1zm-13.1-22.272v19.8a17.423 17.423 0 0 1 12.1-.014v-19.786a15.412 15.412 0 0 0 -12.1 0z" fill="#ffffff" data-original="#000000" style=""/><path xmlns="http://www.w3.org/2000/svg" d="m22.9 35.5a1 1 0 0 1 -1-1v-21.933a1 1 0 0 1 .594-.914 17.671 17.671 0 0 1 14.912 0 1 1 0 0 1 .594.914v21.933a1 1 0 0 1 -1.4.916 15.553 15.553 0 0 0 -13.287 0 1.008 1.008 0 0 1 -.413.084zm7-3.563a18.083 18.083 0 0 1 6.1 1.091v-19.8a15.412 15.412 0 0 0 -12.1 0v19.786a17.489 17.489 0 0 1 6-1.077z" fill="#ffffff" data-original="#000000" style=""/><path xmlns="http://www.w3.org/2000/svg" d="m46.892 18.1h-5.684a1 1 0 0 1 0-2h5.684a1 1 0 0 1 0 2z" fill="#ffffff" data-original="#000000" style=""/><path xmlns="http://www.w3.org/2000/svg" d="m46.892 23.06h-5.684a1 1 0 0 1 0-2h5.684a1 1 0 0 1 0 2z" fill="#ffffff" data-original="#000000" style=""/><path xmlns="http://www.w3.org/2000/svg" d="m46.892 28.018h-5.684a1 1 0 0 1 0-2h5.684a1 1 0 0 1 0 2z" fill="#ffffff" data-original="#000000" style=""/><path xmlns="http://www.w3.org/2000/svg" d="m32.792 18.1h-5.684a1 1 0 0 1 0-2h5.684a1 1 0 0 1 0 2z" fill="#ffffff" data-original="#000000" style=""/><path xmlns="http://www.w3.org/2000/svg" d="m32.792 23.06h-5.684a1 1 0 0 1 0-2h5.684a1 1 0 0 1 0 2z" fill="#ffffff" data-original="#000000" style=""/><path xmlns="http://www.w3.org/2000/svg" d="m32.792 28.018h-5.684a1 1 0 0 1 0-2h5.684a1 1 0 0 1 0 2z" fill="#ffffff" data-original="#000000" style=""/></g></svg>
