<?xml version="1.0"?>
<svg xmlns="http://www.w3.org/2000/svg" xmlns:xlink="http://www.w3.org/1999/xlink" xmlns:svgjs="http://svgjs.com/svgjs" version="1.1" width="512" height="512" x="0" y="0" viewBox="0 0 512.144 512.144" style="enable-background:new 0 0 512 512" xml:space="preserve"><g><g xmlns="http://www.w3.org/2000/svg"><path d="m497.14 15.065c-20.003-20.004-52.553-20.005-72.558 0l-13 13h-103.091c-24.692 0-49.253 10.946-65.403 27.823-16.15-16.877-40.71-27.823-65.402-27.823h-162.686c-8.284 0-15 6.716-15 15v364.048 59.036c0 8.254 6.669 14.958 14.923 15l176.653.902c9.076 17.504 26.871 29.129 47.207 29.975.779.037 1.563.056 2.347.056s1.568-.019 2.347-.056c20.318-.845 38.098-12.447 47.181-29.923h180.137c8.284 0 15-6.716 15-15v-59.99-308.146l11.344-11.344c20.006-20.004 20.006-52.554.001-72.558zm-21.213 21.213c8.308 8.308 8.308 21.824 0 30.132l-15.735 15.735c-.002.002-.004.003-.005.005l-1.237 1.237-30.132-30.132 16.977-16.977c8.307-8.307 21.824-8.307 30.132 0zm-243.79 262.721-31.136 12.206 12.206-31.137zm26.814-15.612-30.131-30.132 178.786-178.787 30.132 30.132zm-228.951-225.322h147.686c21.492 0 44.197 13.229 51.691 30.119 2.406 5.421 7.78 8.916 13.711 8.916s11.305-3.495 13.711-8.916c7.495-16.89 30.2-30.119 51.692-30.119h73.092l-184.583 184.583c-.028.028-.047.056-.073.083-1.404 1.425-2.534 3.131-3.286 5.048l-8.611 21.967c-2.597-4.472-7.426-7.486-12.969-7.486h-96.937c-8.284 0-15 6.716-15 15s6.716 15 15 15h96.937c1.532 0 3.01-.232 4.402-.659l-12.018 30.659h-89.321c-8.284 0-15 6.716-15 15s6.716 15 15 15h95.833c2.991.744 6.109.548 9.02-.592l84.449-33.103c1.938-.76 3.659-1.905 5.092-3.329.013-.012.027-.017.04-.03l186.239-186.239v263.147h-163.728c-22.919 0-39.056 8.398-49.025 16.086-9.97-7.688-26.106-16.086-49.026-16.086h-164.018zm250.519 394.038c-6.749 0-12.666 4.507-14.46 11.013-2.998 10.871-12.585 18.481-23.856 18.936-.042.002-.085.004-.128.006-.626.031-1.261.031-1.886 0-.042-.002-.085-.004-.128-.006-11.271-.455-20.858-8.065-23.856-18.936-1.787-6.479-7.664-10.979-14.384-11.013l-171.821-.878v-29.112h164.018c22.935 0 34.341 12.589 36.474 15.221 2.759 4.209 7.504 6.788 12.596 6.788 5.228 0 10.052-2.719 12.769-7.129 2.43-2.902 13.828-14.88 36.212-14.88h163.728v29.99z" fill="#ffffff" data-original="#000000" style=""/><path d="m75.124 172.261h96.937c8.284 0 15-6.716 15-15s-6.716-15-15-15h-96.937c-8.284 0-15 6.716-15 15s6.715 15 15 15z" fill="#ffffff" data-original="#000000" style=""/><path d="m75.124 232.261h96.937c8.284 0 15-6.716 15-15s-6.716-15-15-15h-96.937c-8.284 0-15 6.716-15 15s6.715 15 15 15z" fill="#ffffff" data-original="#000000" style=""/></g></g></svg>
